<svg width="131" height="124" viewBox="0 0 131 124" fill="none" xmlns="http://www.w3.org/2000/svg">
<path d="M130.5 123.605H0.5L18.375 90.4331C35.8438 122.42 108.562 100.306 81.75 58.4458C54.9375 16.586 36.25 72.2675 52.9062 73.4522C63.2984 74.1914 64.9583 66.8705 64.6875 61.6051C72.4062 67.0021 83.2125 80.3235 64.6875 90.4331C52.9062 96.8624 32.0521 82.535 27.3125 72.2675L64.6875 0L130.5 123.605Z" fill="url(#paint0_radial_94_11)"/>
<path d="M13.0938 100.304C22.9792 108.071 46.8125 120.05 66.3125 105.833C90.6875 88.0624 105.719 62.7885 71.5938 44.228C37.4688 25.6675 35.4375 78.9796 50.875 75.0306C62.4096 72.0799 64.9194 66.1437 64.7593 63.0133C64.7361 62.8041 64.7122 62.5974 64.6875 62.3935C64.7233 62.5847 64.7479 62.792 64.7593 63.0133C66.0056 74.2842 64.9144 92.9098 50.875 81.7439C33 67.5273 37.0625 48.9668 50.875 37.9095C64.6875 26.8521 88.25 39.884 93.9375 59.6292C99.625 79.3744 72 120.05 49.25 118.47C31.05 117.206 12.9583 115.311 5.78125 114.521L13.0938 100.304Z" fill="url(#paint1_linear_94_11)"/>
<path d="M92.7187 67.1331C104.5 102.675 69.5624 122.025 69.9687 122.42L92.7187 116.101C85.1354 118.207 75.8999 122.42 99.6249 122.42C98.8124 122.42 98.4062 92.012 95.1562 71.477C91.9062 50.942 71.9999 18.1649 62.6562 19.7445C53.3124 21.3241 39.0937 49.3623 33.4062 62.7891C28.8562 73.5305 37.4687 79.9016 42.3438 81.7445C25.6875 71.0821 42.3438 44.2287 54.9375 36.7255C67.5312 29.2223 80.9374 31.5917 92.7187 67.1331Z" fill="url(#paint2_linear_94_11)"/>
<path d="M100.844 80.9555C109.294 104.334 106.531 118.34 104.094 122.42H122.375C121.969 121.367 120.181 116.971 116.281 107.809C111.406 96.3568 90.2812 51.7326 100.844 80.9555Z" fill="url(#paint3_linear_94_11)"/>
<path d="M43.9686 56.4711C44.2936 46.0457 49.7916 43.176 52.4999 43.0444C53.5832 42.6495 54.6124 43.1234 50.0624 48.1782C45.5124 53.2329 45.7291 63.4478 46.4061 67.9234C45.4582 68.4499 43.6436 66.8966 43.9686 56.4711Z" fill="#241AA9"/>
<path d="M60.2188 119.26C49.4938 123.683 17.5625 121.103 2.9375 119.26L0.5 123.999H54.125C60.625 120.577 70.9437 114.837 60.2188 119.26Z" fill="#3069D6"/>
<defs>
<radialGradient id="paint0_radial_94_11" cx="0" cy="0" r="1" gradientUnits="userSpaceOnUse" gradientTransform="translate(65.5 61.8025) rotate(66.9833) scale(52.9891 55.2614)">
<stop stop-color="#230FA2"/>
<stop offset="1" stop-color="#2DA7FF"/>
</radialGradient>
<linearGradient id="paint1_linear_94_11" x1="49.8301" y1="33.8613" x2="49.8301" y2="118.515" gradientUnits="userSpaceOnUse">
<stop stop-color="#6A5DFF"/>
<stop offset="1" stop-color="#26FF8A"/>
</linearGradient>
<linearGradient id="paint2_linear_94_11" x1="65.8726" y1="19.6895" x2="65.8726" y2="122.42" gradientUnits="userSpaceOnUse">
<stop stop-color="#53A8D8"/>
<stop offset="1" stop-color="#3BFFD0"/>
</linearGradient>
<linearGradient id="paint3_linear_94_11" x1="110.149" y1="71.1963" x2="110.149" y2="122.42" gradientUnits="userSpaceOnUse">
<stop stop-color="#17ACFF"/>
<stop offset="1" stop-color="#2CE3C2"/>
</linearGradient>
</defs>
</svg>
